<?xml version="1.0" encoding="UTF-8"?><svg xmlns="http://www.w3.org/2000/svg" xmlns:xlink="http://www.w3.org/1999/xlink" fill-opacity="1" color-rendering="auto" color-interpolation="auto" text-rendering="auto" stroke="black" stroke-linecap="square" width="988" stroke-miterlimit="10" shape-rendering="auto" stroke-opacity="1" fill="black" stroke-dasharray="none" font-weight="normal" stroke-width="1" height="441" font-family="'Dialog'" font-style="normal" stroke-linejoin="miter" font-size="12px" stroke-dashoffset="0" image-rendering="auto">
  <!--Generated by ySVG 2.5-->
  <defs id="genericDefs"/>
  <g>
    <defs id="defs1">
      <clipPath clipPathUnits="userSpaceOnUse" id="clipPath1">
        <path d="M0 0 L988 0 L988 441 L0 441 L0 0 Z"/>
      </clipPath>
      <clipPath clipPathUnits="userSpaceOnUse" id="clipPath2">
        <path d="M819 427 L1807 427 L1807 868 L819 868 L819 427 Z"/>
      </clipPath>
      <clipPath clipPathUnits="userSpaceOnUse" id="clipPath3">
        <path d="M958 567 L958 607 L1060 607 L1060 567 Z"/>
      </clipPath>
      <clipPath clipPathUnits="userSpaceOnUse" id="clipPath4">
        <path d="M1117 567 L1117 607 L1269 607 L1269 567 Z"/>
      </clipPath>
      <clipPath clipPathUnits="userSpaceOnUse" id="clipPath5">
        <path d="M959 476 L959 504 L1059 504 L1059 476 Z"/>
      </clipPath>
      <clipPath clipPathUnits="userSpaceOnUse" id="clipPath6">
        <path d="M834 534 L834 562 L934 562 L934 534 Z"/>
      </clipPath>
      <clipPath clipPathUnits="userSpaceOnUse" id="clipPath7">
        <path d="M1117 476 L1117 504 L1269 504 L1269 476 Z"/>
      </clipPath>
      <clipPath clipPathUnits="userSpaceOnUse" id="clipPath8">
        <path d="M1288 534 L1288 562 L1440 562 L1440 534 Z"/>
      </clipPath>
      <clipPath clipPathUnits="userSpaceOnUse" id="clipPath9">
        <path d="M915 718 L915 746 L1022 746 L1022 718 Z"/>
      </clipPath>
      <clipPath clipPathUnits="userSpaceOnUse" id="clipPath10">
        <path d="M922 764 L922 792 L1015 792 L1015 764 Z"/>
      </clipPath>
      <clipPath clipPathUnits="userSpaceOnUse" id="clipPath11">
        <path d="M1055 718 L1055 746 L1148 746 L1148 718 Z"/>
      </clipPath>
      <clipPath clipPathUnits="userSpaceOnUse" id="clipPath12">
        <path d="M1055 764 L1055 792 L1148 792 L1148 764 Z"/>
      </clipPath>
      <clipPath clipPathUnits="userSpaceOnUse" id="clipPath13">
        <path d="M1055 810 L1055 838 L1148 838 L1148 810 Z"/>
      </clipPath>
      <clipPath clipPathUnits="userSpaceOnUse" id="clipPath14">
        <path d="M1188 719 L1188 747 L1288 747 L1288 719 Z"/>
      </clipPath>
      <clipPath clipPathUnits="userSpaceOnUse" id="clipPath15">
        <path d="M1188 764 L1188 792 L1288 792 L1288 764 Z"/>
      </clipPath>
      <clipPath clipPathUnits="userSpaceOnUse" id="clipPath16">
        <path d="M1188 809 L1188 837 L1288 837 L1288 809 Z"/>
      </clipPath>
      <clipPath clipPathUnits="userSpaceOnUse" id="clipPath17">
        <path d="M1044 670 L1044 698 L1160 698 L1160 670 Z"/>
      </clipPath>
    </defs>
    <g fill="white" text-rendering="geometricPrecision" shape-rendering="geometricPrecision" transform="translate(-819,-427)" stroke="white">
      <rect x="819" width="988" height="441" y="427" clip-path="url(#clipPath2)" stroke="none"/>
    </g>
    <g text-rendering="geometricPrecision" stroke-miterlimit="1.45" shape-rendering="geometricPrecision" transform="matrix(1,0,0,1,-819,-427)" stroke-linecap="butt">
      <rect fill="none" x="894" width="416" height="194.5" y="658" clip-path="url(#clipPath2)"/>
    </g>
    <g fill="rgb(255,204,0)" text-rendering="geometricPrecision" shape-rendering="geometricPrecision" transform="matrix(1,0,0,1,-819,-427)" stroke="rgb(255,204,0)">
      <rect x="959" width="100" height="38" y="568" clip-path="url(#clipPath2)" stroke="none"/>
      <rect x="958" y="567" clip-path="url(#clipPath2)" fill="yellow" width="1" height="40" stroke="none"/>
      <rect x="959" y="567" clip-path="url(#clipPath2)" fill="yellow" width="100" height="1" stroke="none"/>
      <rect x="959" y="606" clip-path="url(#clipPath2)" fill="rgb(178,142,0)" width="101" height="1" stroke="none"/>
      <rect x="1059" y="567" clip-path="url(#clipPath2)" fill="rgb(178,142,0)" width="1" height="39" stroke="none"/>
    </g>
    <g font-size="13px" stroke-linecap="butt" transform="matrix(1,0,0,1,-819,-427)" text-rendering="geometricPrecision" font-family="sans-serif" shape-rendering="geometricPrecision" font-weight="bold" stroke-miterlimit="1.45">
      <text x="978.6519" xml:space="preserve" y="585.0698" clip-path="url(#clipPath3)" stroke="none">Voxelizer </text>
      <text x="996.365" xml:space="preserve" y="600.9961" clip-path="url(#clipPath3)" stroke="none">App</text>
    </g>
    <g fill="rgb(255,204,0)" text-rendering="geometricPrecision" shape-rendering="geometricPrecision" transform="matrix(1,0,0,1,-819,-427)" stroke="rgb(255,204,0)">
      <rect x="1118" width="150" height="38" y="568" clip-path="url(#clipPath2)" stroke="none"/>
      <rect x="1117" y="567" clip-path="url(#clipPath2)" fill="yellow" width="1" height="40" stroke="none"/>
      <rect x="1118" y="567" clip-path="url(#clipPath2)" fill="yellow" width="150" height="1" stroke="none"/>
      <rect x="1118" y="606" clip-path="url(#clipPath2)" fill="rgb(178,142,0)" width="151" height="1" stroke="none"/>
      <rect x="1268" y="567" clip-path="url(#clipPath2)" fill="rgb(178,142,0)" width="1" height="39" stroke="none"/>
    </g>
    <g font-size="13px" stroke-linecap="butt" transform="matrix(1,0,0,1,-819,-427)" text-rendering="geometricPrecision" font-family="sans-serif" shape-rendering="geometricPrecision" font-weight="bold" stroke-miterlimit="1.45">
      <text x="1132.0928" xml:space="preserve" y="585.0698" clip-path="url(#clipPath4)" stroke="none">Physics Simulation </text>
      <text x="1180.865" xml:space="preserve" y="600.9961" clip-path="url(#clipPath4)" stroke="none">App</text>
    </g>
    <g fill="rgb(255,204,0)" text-rendering="geometricPrecision" shape-rendering="geometricPrecision" transform="matrix(1,0,0,1,-819,-427)" stroke="rgb(255,204,0)">
      <rect x="960" width="98" height="26" y="477" clip-path="url(#clipPath2)" stroke="none"/>
      <rect x="959" y="476" clip-path="url(#clipPath2)" fill="yellow" width="1" height="28" stroke="none"/>
      <rect x="960" y="476" clip-path="url(#clipPath2)" fill="yellow" width="98" height="1" stroke="none"/>
      <rect x="960" y="503" clip-path="url(#clipPath2)" fill="rgb(178,142,0)" width="99" height="1" stroke="none"/>
      <rect x="1058" y="476" clip-path="url(#clipPath2)" fill="rgb(178,142,0)" width="1" height="27" stroke="none"/>
    </g>
    <g font-size="13px" stroke-linecap="butt" transform="matrix(1,0,0,1,-819,-427)" text-rendering="geometricPrecision" font-family="sans-serif" shape-rendering="geometricPrecision" font-weight="bold" stroke-miterlimit="1.45">
      <text x="980.4578" xml:space="preserve" y="494.0698" clip-path="url(#clipPath5)" stroke="none">Voxelizer</text>
    </g>
    <g fill="rgb(255,204,0)" text-rendering="geometricPrecision" shape-rendering="geometricPrecision" transform="matrix(1,0,0,1,-819,-427)" stroke="rgb(255,204,0)">
      <rect x="835" width="98" height="26" y="535" clip-path="url(#clipPath2)" stroke="none"/>
      <rect x="834" y="534" clip-path="url(#clipPath2)" fill="yellow" width="1" height="28" stroke="none"/>
      <rect x="835" y="534" clip-path="url(#clipPath2)" fill="yellow" width="98" height="1" stroke="none"/>
      <rect x="835" y="561" clip-path="url(#clipPath2)" fill="rgb(178,142,0)" width="99" height="1" stroke="none"/>
      <rect x="933" y="534" clip-path="url(#clipPath2)" fill="rgb(178,142,0)" width="1" height="27" stroke="none"/>
    </g>
    <g font-size="13px" stroke-linecap="butt" transform="matrix(1,0,0,1,-819,-427)" text-rendering="geometricPrecision" font-family="sans-serif" shape-rendering="geometricPrecision" font-weight="bold" stroke-miterlimit="1.45">
      <text x="845.7141" xml:space="preserve" y="552.0698" clip-path="url(#clipPath6)" stroke="none">MeshLoader</text>
    </g>
    <g fill="rgb(255,204,0)" text-rendering="geometricPrecision" shape-rendering="geometricPrecision" transform="matrix(1,0,0,1,-819,-427)" stroke="rgb(255,204,0)">
      <rect x="1118" width="150" height="26" y="477" clip-path="url(#clipPath2)" stroke="none"/>
      <rect x="1117" y="476" clip-path="url(#clipPath2)" fill="yellow" width="1" height="28" stroke="none"/>
      <rect x="1118" y="476" clip-path="url(#clipPath2)" fill="yellow" width="150" height="1" stroke="none"/>
      <rect x="1118" y="503" clip-path="url(#clipPath2)" fill="rgb(178,142,0)" width="151" height="1" stroke="none"/>
      <rect x="1268" y="476" clip-path="url(#clipPath2)" fill="rgb(178,142,0)" width="1" height="27" stroke="none"/>
    </g>
    <g font-size="13px" stroke-linecap="butt" transform="matrix(1,0,0,1,-819,-427)" text-rendering="geometricPrecision" font-family="sans-serif" shape-rendering="geometricPrecision" font-weight="bold" stroke-miterlimit="1.45">
      <text x="1145.4546" xml:space="preserve" y="494.0698" clip-path="url(#clipPath7)" stroke="none">Physics Engine</text>
    </g>
    <g fill="rgb(255,204,0)" text-rendering="geometricPrecision" shape-rendering="geometricPrecision" transform="matrix(1,0,0,1,-819,-427)" stroke="rgb(255,204,0)">
      <rect x="1289" width="150" height="26" y="535" clip-path="url(#clipPath2)" stroke="none"/>
      <rect x="1288" y="534" clip-path="url(#clipPath2)" fill="yellow" width="1" height="28" stroke="none"/>
      <rect x="1289" y="534" clip-path="url(#clipPath2)" fill="yellow" width="150" height="1" stroke="none"/>
      <rect x="1289" y="561" clip-path="url(#clipPath2)" fill="rgb(178,142,0)" width="151" height="1" stroke="none"/>
      <rect x="1439" y="534" clip-path="url(#clipPath2)" fill="rgb(178,142,0)" width="1" height="27" stroke="none"/>
    </g>
    <g font-size="13px" stroke-linecap="butt" transform="matrix(1,0,0,1,-819,-427)" text-rendering="geometricPrecision" font-family="sans-serif" shape-rendering="geometricPrecision" font-weight="bold" stroke-miterlimit="1.45">
      <text x="1314.136" xml:space="preserve" y="552.0698" clip-path="url(#clipPath8)" stroke="none">Scene Serializer</text>
    </g>
    <g fill="rgb(255,204,0)" text-rendering="geometricPrecision" shape-rendering="geometricPrecision" transform="matrix(1,0,0,1,-819,-427)" stroke="rgb(255,204,0)">
      <rect x="916" width="105" height="26" y="719" clip-path="url(#clipPath2)" stroke="none"/>
      <rect x="915" y="718" clip-path="url(#clipPath2)" fill="yellow" width="1" height="28" stroke="none"/>
      <rect x="916" y="718" clip-path="url(#clipPath2)" fill="yellow" width="105" height="1" stroke="none"/>
      <rect x="916" y="745" clip-path="url(#clipPath2)" fill="rgb(178,142,0)" width="106" height="1" stroke="none"/>
      <rect x="1021" y="718" clip-path="url(#clipPath2)" fill="rgb(178,142,0)" width="1" height="27" stroke="none"/>
    </g>
    <g font-size="13px" stroke-linecap="butt" transform="matrix(1,0,0,1,-819,-427)" text-rendering="geometricPrecision" font-family="sans-serif" shape-rendering="geometricPrecision" font-weight="bold" stroke-miterlimit="1.45">
      <text x="922.751" xml:space="preserve" y="736.0698" clip-path="url(#clipPath9)" stroke="none">VoxelSerializer</text>
    </g>
    <g fill="rgb(255,204,0)" text-rendering="geometricPrecision" shape-rendering="geometricPrecision" transform="matrix(1,0,0,1,-819,-427)" stroke="rgb(255,204,0)">
      <rect x="923" width="91" height="26" y="765" clip-path="url(#clipPath2)" stroke="none"/>
      <rect x="922" y="764" clip-path="url(#clipPath2)" fill="yellow" width="1" height="28" stroke="none"/>
      <rect x="923" y="764" clip-path="url(#clipPath2)" fill="yellow" width="91" height="1" stroke="none"/>
      <rect x="923" y="791" clip-path="url(#clipPath2)" fill="rgb(178,142,0)" width="92" height="1" stroke="none"/>
      <rect x="1014" y="764" clip-path="url(#clipPath2)" fill="rgb(178,142,0)" width="1" height="27" stroke="none"/>
    </g>
    <g font-size="13px" stroke-linecap="butt" transform="matrix(1,0,0,1,-819,-427)" text-rendering="geometricPrecision" font-family="sans-serif" shape-rendering="geometricPrecision" font-weight="bold" stroke-miterlimit="1.45">
      <text x="946.9609" xml:space="preserve" y="782.0698" clip-path="url(#clipPath10)" stroke="none">BaseUI</text>
    </g>
    <g fill="rgb(255,204,0)" text-rendering="geometricPrecision" shape-rendering="geometricPrecision" transform="matrix(1,0,0,1,-819,-427)" stroke="rgb(255,204,0)">
      <rect x="1056" width="91" height="26" y="719" clip-path="url(#clipPath2)" stroke="none"/>
      <rect x="1055" y="718" clip-path="url(#clipPath2)" fill="yellow" width="1" height="28" stroke="none"/>
      <rect x="1056" y="718" clip-path="url(#clipPath2)" fill="yellow" width="91" height="1" stroke="none"/>
      <rect x="1056" y="745" clip-path="url(#clipPath2)" fill="rgb(178,142,0)" width="92" height="1" stroke="none"/>
      <rect x="1147" y="718" clip-path="url(#clipPath2)" fill="rgb(178,142,0)" width="1" height="27" stroke="none"/>
    </g>
    <g font-size="13px" stroke-linecap="butt" transform="matrix(1,0,0,1,-819,-427)" text-rendering="geometricPrecision" font-family="sans-serif" shape-rendering="geometricPrecision" font-weight="bold" stroke-miterlimit="1.45">
      <text x="1073.4609" xml:space="preserve" y="736.0698" clip-path="url(#clipPath11)" stroke="none">Renderer</text>
    </g>
    <g fill="rgb(255,204,0)" text-rendering="geometricPrecision" shape-rendering="geometricPrecision" transform="matrix(1,0,0,1,-819,-427)" stroke="rgb(255,204,0)">
      <rect x="1056" width="91" height="26" y="765" clip-path="url(#clipPath2)" stroke="none"/>
      <rect x="1055" y="764" clip-path="url(#clipPath2)" fill="yellow" width="1" height="28" stroke="none"/>
      <rect x="1056" y="764" clip-path="url(#clipPath2)" fill="yellow" width="91" height="1" stroke="none"/>
      <rect x="1056" y="791" clip-path="url(#clipPath2)" fill="rgb(178,142,0)" width="92" height="1" stroke="none"/>
      <rect x="1147" y="764" clip-path="url(#clipPath2)" fill="rgb(178,142,0)" width="1" height="27" stroke="none"/>
    </g>
    <g font-size="13px" stroke-linecap="butt" transform="matrix(1,0,0,1,-819,-427)" text-rendering="geometricPrecision" font-family="sans-serif" shape-rendering="geometricPrecision" font-weight="bold" stroke-miterlimit="1.45">
      <text x="1070.9441" xml:space="preserve" y="782.0698" clip-path="url(#clipPath12)" stroke="none">Math Utils</text>
    </g>
    <g fill="rgb(255,204,0)" text-rendering="geometricPrecision" shape-rendering="geometricPrecision" transform="matrix(1,0,0,1,-819,-427)" stroke="rgb(255,204,0)">
      <rect x="1056" width="91" height="26" y="811" clip-path="url(#clipPath2)" stroke="none"/>
      <rect x="1055" y="810" clip-path="url(#clipPath2)" fill="yellow" width="1" height="28" stroke="none"/>
      <rect x="1056" y="810" clip-path="url(#clipPath2)" fill="yellow" width="91" height="1" stroke="none"/>
      <rect x="1056" y="837" clip-path="url(#clipPath2)" fill="rgb(178,142,0)" width="92" height="1" stroke="none"/>
      <rect x="1147" y="810" clip-path="url(#clipPath2)" fill="rgb(178,142,0)" width="1" height="27" stroke="none"/>
    </g>
    <g font-size="13px" stroke-linecap="butt" transform="matrix(1,0,0,1,-819,-427)" text-rendering="geometricPrecision" font-family="sans-serif" shape-rendering="geometricPrecision" font-weight="bold" stroke-miterlimit="1.45">
      <text x="1078.1519" xml:space="preserve" y="828.0698" clip-path="url(#clipPath13)" stroke="none">Camera</text>
    </g>
    <g fill="rgb(255,204,0)" text-rendering="geometricPrecision" shape-rendering="geometricPrecision" transform="matrix(1,0,0,1,-819,-427)" stroke="rgb(255,204,0)">
      <rect x="1189" width="98" height="26" y="720" clip-path="url(#clipPath2)" stroke="none"/>
      <rect x="1188" y="719" clip-path="url(#clipPath2)" fill="yellow" width="1" height="28" stroke="none"/>
      <rect x="1189" y="719" clip-path="url(#clipPath2)" fill="yellow" width="98" height="1" stroke="none"/>
      <rect x="1189" y="746" clip-path="url(#clipPath2)" fill="rgb(178,142,0)" width="99" height="1" stroke="none"/>
      <rect x="1287" y="719" clip-path="url(#clipPath2)" fill="rgb(178,142,0)" width="1" height="27" stroke="none"/>
    </g>
    <g font-size="13px" stroke-linecap="butt" transform="matrix(1,0,0,1,-819,-427)" text-rendering="geometricPrecision" font-family="sans-serif" shape-rendering="geometricPrecision" font-weight="bold" stroke-miterlimit="1.45">
      <text x="1204.5432" xml:space="preserve" y="737.0698" clip-path="url(#clipPath14)" stroke="none">VoxelMesh</text>
    </g>
    <g fill="rgb(255,204,0)" text-rendering="geometricPrecision" shape-rendering="geometricPrecision" transform="matrix(1,0,0,1,-819,-427)" stroke="rgb(255,204,0)">
      <rect x="1189" width="98" height="26" y="765" clip-path="url(#clipPath2)" stroke="none"/>
      <rect x="1188" y="764" clip-path="url(#clipPath2)" fill="yellow" width="1" height="28" stroke="none"/>
      <rect x="1189" y="764" clip-path="url(#clipPath2)" fill="yellow" width="98" height="1" stroke="none"/>
      <rect x="1189" y="791" clip-path="url(#clipPath2)" fill="rgb(178,142,0)" width="99" height="1" stroke="none"/>
      <rect x="1287" y="764" clip-path="url(#clipPath2)" fill="rgb(178,142,0)" width="1" height="27" stroke="none"/>
    </g>
    <g font-size="13px" stroke-linecap="butt" transform="matrix(1,0,0,1,-819,-427)" text-rendering="geometricPrecision" font-family="sans-serif" shape-rendering="geometricPrecision" font-weight="bold" stroke-miterlimit="1.45">
      <text x="1221.1582" xml:space="preserve" y="782.0698" clip-path="url(#clipPath15)" stroke="none">Voxel</text>
    </g>
    <g fill="rgb(255,204,0)" text-rendering="geometricPrecision" shape-rendering="geometricPrecision" transform="matrix(1,0,0,1,-819,-427)" stroke="rgb(255,204,0)">
      <rect x="1189" width="98" height="26" y="810" clip-path="url(#clipPath2)" stroke="none"/>
      <rect x="1188" y="809" clip-path="url(#clipPath2)" fill="yellow" width="1" height="28" stroke="none"/>
      <rect x="1189" y="809" clip-path="url(#clipPath2)" fill="yellow" width="98" height="1" stroke="none"/>
      <rect x="1189" y="836" clip-path="url(#clipPath2)" fill="rgb(178,142,0)" width="99" height="1" stroke="none"/>
      <rect x="1287" y="809" clip-path="url(#clipPath2)" fill="rgb(178,142,0)" width="1" height="27" stroke="none"/>
    </g>
    <g font-size="13px" stroke-linecap="butt" transform="matrix(1,0,0,1,-819,-427)" text-rendering="geometricPrecision" font-family="sans-serif" shape-rendering="geometricPrecision" font-weight="bold" stroke-miterlimit="1.45">
      <text x="1200.5664" xml:space="preserve" y="827.0698" clip-path="url(#clipPath16)" stroke="none">BezierCurve</text>
      <text x="1045.5352" xml:space="preserve" font-size="16px" y="691.0859" clip-path="url(#clipPath17)" stroke="none">Shared Library</text>
    </g>
    <g text-rendering="geometricPrecision" stroke-miterlimit="1.45" stroke-dasharray="6,2" shape-rendering="geometricPrecision" transform="matrix(1,0,0,1,-819,-427)" stroke-linecap="butt">
      <path fill="none" d="M1020.0574 607.0043 L1045.8263 653.624" clip-path="url(#clipPath2)"/>
      <path d="M1047.7614 657.1248 L1047.2074 643.7198 L1047.7614 657.1248 L1036.705 649.525 Z" clip-path="url(#clipPath2)" stroke="none"/>
      <path fill="none" stroke-miterlimit="10" stroke-dasharray="none" d="M1047.7614 657.1248 L1047.2074 643.7198 L1047.7614 657.1248 L1036.705 649.525 Z" clip-path="url(#clipPath2)" stroke-linecap="square"/>
      <path fill="none" d="M1182.621 607.0043 L1157.2766 653.6075" clip-path="url(#clipPath2)"/>
      <path d="M1155.3656 657.1215 L1166.3696 649.4462 L1155.3656 657.1215 L1155.8278 643.7131 Z" clip-path="url(#clipPath2)" stroke="none"/>
      <path fill="none" stroke-miterlimit="10" stroke-dasharray="none" d="M1155.3656 657.1215 L1166.3696 649.4462 L1155.3656 657.1215 L1155.8278 643.7131 Z" clip-path="url(#clipPath2)" stroke-linecap="square"/>
      <path fill="none" stroke-dasharray="none" d="M1009 503.9722 L1009 560.0133" clip-path="url(#clipPath2)"/>
      <path fill="white" stroke-dasharray="none" d="M1009 567.0133 L1004 560.0133 L1009 553.0133 L1014 560.0133 Z" clip-path="url(#clipPath2)" stroke="none"/>
      <path fill="none" stroke-dasharray="none" d="M1009 567.0133 L1004 560.0133 L1009 553.0133 L1014 560.0133 Z" clip-path="url(#clipPath2)"/>
      <path fill="none" stroke-dasharray="none" d="M928.8914 562.0061 L951.3502 569.0132" clip-path="url(#clipPath2)"/>
      <path fill="white" stroke-dasharray="none" d="M958.0325 571.0981 L949.861 573.7863 L944.6678 566.9283 L952.8394 564.2402 Z" clip-path="url(#clipPath2)" stroke="none"/>
      <path fill="none" stroke-dasharray="none" d="M958.0325 571.0981 L949.861 573.7863 L944.6678 566.9283 L952.8394 564.2402 Z" clip-path="url(#clipPath2)"/>
      <path fill="none" stroke-dasharray="none" d="M1193.5 503.9722 L1193.5 560.0133" clip-path="url(#clipPath2)"/>
      <path fill="white" stroke-dasharray="none" d="M1193.5 567.0133 L1188.5 560.0133 L1193.5 553.0133 L1198.5 560.0133 Z" clip-path="url(#clipPath2)" stroke="none"/>
      <path fill="none" stroke-dasharray="none" d="M1193.5 567.0133 L1188.5 560.0133 L1193.5 553.0133 L1198.5 560.0133 Z" clip-path="url(#clipPath2)"/>
      <path fill="none" stroke-dasharray="none" d="M1302.7682 562.0061 L1276.3259 568.0544" clip-path="url(#clipPath2)"/>
      <path fill="white" stroke-dasharray="none" d="M1269.5022 569.6154 L1275.2111 563.1804 L1283.1497 566.4935 L1277.4409 572.9285 Z" clip-path="url(#clipPath2)" stroke="none"/>
      <path fill="none" stroke-dasharray="none" d="M1269.5022 569.6154 L1275.2111 563.1804 L1283.1497 566.4935 L1277.4409 572.9285 Z" clip-path="url(#clipPath2)"/>
    </g>
  </g>
</svg>
